<svg width="15" height="18" viewBox="0 0 15 18" fill="none" xmlns="http://www.w3.org/2000/svg">
<path fill-rule="evenodd" clip-rule="evenodd" d="M6.74963 17.426C6.84247 17.5004 6.91603 17.558 6.96712 17.5975L7.499 17.9965L8.03088 17.5975C8.08196 17.558 8.15553 17.5004 8.24836 17.426C8.43397 17.2773 8.69698 17.0608 9.01164 16.7861C9.6399 16.2375 10.4794 15.4522 11.3213 14.506C12.9702 12.6529 14.773 10.024 14.773 7.274C14.773 3.25668 11.5163 0 7.499 0C3.48168 0 0.224998 3.25668 0.224998 7.274C0.224998 10.024 2.02782 12.6529 3.67669 14.506C4.51856 15.4522 5.3581 16.2375 5.98635 16.7861C6.30101 17.0608 6.56403 17.2773 6.74963 17.426ZM7.499 1.5C4.31011 1.5 1.725 4.08511 1.725 7.274C1.725 9.43188 3.18417 11.696 4.7973 13.5089C5.58643 14.3958 6.3779 15.1367 6.97289 15.6561C7.17391 15.8317 7.35188 15.9814 7.499 16.1023C7.64611 15.9814 7.82409 15.8317 8.0251 15.6561C8.6201 15.1367 9.41156 14.3958 10.2007 13.5089C11.8138 11.696 13.273 9.43188 13.273 7.274C13.273 4.08511 10.6879 1.5 7.499 1.5Z" fill="#222222"/>
<path fill-rule="evenodd" clip-rule="evenodd" d="M7.49901 4.762C6.11167 4.762 4.98701 5.88666 4.98701 7.274C4.98701 8.66134 6.11167 9.786 7.49901 9.786C8.88635 9.786 10.011 8.66134 10.011 7.274C10.011 5.88666 8.88635 4.762 7.49901 4.762ZM3.48701 7.274C3.48701 5.05823 5.28324 3.262 7.49901 3.262C9.71477 3.262 11.511 5.05823 11.511 7.274C11.511 9.48976 9.71477 11.286 7.49901 11.286C5.28324 11.286 3.48701 9.48976 3.48701 7.274Z" fill="#222222"/>
</svg>
